<?xml version="1.0" encoding="UTF-8" standalone="no"?>
<!-- Created with Inkscape (http://www.inkscape.org/) -->

<svg
   width="100mm"
   height="50mm"
   viewBox="0 0 100 50"
   version="1.1"
   id="svg1"
   inkscape:version="1.4.2 (ebf0e940, 2025-05-08)"
   sodipodi:docname="switch.svg"
   xmlns:inkscape="http://www.inkscape.org/namespaces/inkscape"
   xmlns:sodipodi="http://sodipodi.sourceforge.net/DTD/sodipodi-0.dtd"
   xmlns="http://www.w3.org/2000/svg"
   xmlns:svg="http://www.w3.org/2000/svg">
  <sodipodi:namedview
     id="namedview1"
     pagecolor="#ffffff"
     bordercolor="#000000"
     borderopacity="0.25"
     inkscape:showpageshadow="2"
     inkscape:pageopacity="0.0"
     inkscape:pagecheckerboard="0"
     inkscape:deskcolor="#d1d1d1"
     inkscape:document-units="mm"
     inkscape:zoom="1.2778487"
     inkscape:cx="113.47196"
     inkscape:cy="128.73199"
     inkscape:window-width="1512"
     inkscape:window-height="916"
     inkscape:window-x="0"
     inkscape:window-y="38"
     inkscape:window-maximized="1"
     inkscape:current-layer="layer1" />
  <defs
     id="defs1" />
  <g
     inkscape:label="Layer 1"
     inkscape:groupmode="layer"
     id="layer1">
    <path
       id="rect1"
       style="fill:#999999;stroke-width:0.1;stroke-linecap:round"
       d="m 14.315921,3.8166633 h 74.1245 V 47.136172 h -74.1245 z" />
    <g
       id="g2"
       transform="translate(-33.816869,-56.870864)">
      <path
         id="rect1-8"
         style="fill:#5a5a5a;stroke-width:0.00778605;stroke-linecap:round"
         d="m 122.25729,72.039368 h 3.90765 v 4.98153 h -3.90765 z" />
      <path
         id="rect1-8-3"
         style="fill:#5a5a5a;stroke-width:0.00778605;stroke-linecap:round"
         d="m 122.25729,87.673668 h 3.90765 v 4.981531 h -3.90765 z" />
    </g>
    <path
       id="rect1-8-37"
       style="fill:#5a5a5a;stroke-width:0.00778605;stroke-linecap:round"
       d="m 10.408266,15.168504 h 3.90765 v 4.98153 h -3.90765 z" />
    <path
       id="rect1-8-3-8"
       style="fill:#5a5a5a;stroke-width:0.00778605;stroke-linecap:round"
       d="m 10.408266,30.802804 h 3.90765 v 4.981531 h -3.90765 z" />
    <path
       id="rect2"
       style="fill:#bebebe;stroke-width:0.0944578;stroke-linecap:round"
       d="M 17.731272,7.1036353 H 85.122721 V 43.690092 H 17.731272 Z" />
    <path
       id="rect2-0"
       style="fill:#7a7a7a;stroke-width:0.0674275;stroke-linecap:round"
       d="M 50.78245,7.1036353 H 85.122721 V 43.690092 H 50.78245 Z" />
    <path
       d="m 66.922411,22.729591 q 0.42323,0.465088 0.64647,1.139465 0.2279,0.674377 0.2279,1.530139 0,0.855762 -0.23255,1.53479 -0.22789,0.674378 -0.64182,1.125513 -0.42788,0.469739 -1.013891,0.706933 -0.58136,0.237195 -1.330151,0.237195 -0.730188,0 -1.330152,-0.241846 -0.595312,-0.241845 -1.013891,-0.702282 -0.418579,-0.460437 -0.646472,-1.130164 -0.223243,-0.669726 -0.223243,-1.530139 0,-0.84646 0.223243,-1.516186 0.223242,-0.674378 0.651123,-1.153418 0.409277,-0.455786 1.013891,-0.697632 0.609265,-0.241846 1.325501,-0.241846 0.74414,0 1.334802,0.246497 0.59531,0.241846 1.00924,0.692981 z m -0.0837,2.669604 q 0,-1.348755 -0.60461,-2.078943 -0.604614,-0.734838 -1.651062,-0.734838 -1.055749,0 -1.660363,0.734838 -0.599964,0.730188 -0.599964,2.078943 0,1.362708 0.613916,2.088245 0.613916,0.720886 1.646411,0.720886 1.032496,0 1.641762,-0.720886 0.61391,-0.725537 0.61391,-2.088245 z m 7.70186,3.460254 h -1.13947 l -3.28352,-6.194971 v 6.194971 h -0.86041 v -6.925158 h 1.42782 l 2.99517,5.655468 v -5.655468 h 0.86041 z"
       id="text2"
       style="font-size:9.525px;stroke-width:0.3;stroke-linecap:round"
       aria-label="ON" />
    <path
       d="m 31.361502,22.729591 q 0.42323,0.465088 0.646472,1.139465 0.227893,0.674377 0.227893,1.530139 0,0.855762 -0.232544,1.53479 -0.227893,0.674378 -0.641821,1.125513 -0.427881,0.469739 -1.013891,0.706933 -0.58136,0.237195 -1.330152,0.237195 -0.730188,0 -1.330151,-0.241846 -0.595312,-0.241845 -1.013892,-0.702282 -0.418579,-0.460437 -0.646472,-1.130164 -0.223242,-0.669726 -0.223242,-1.530139 0,-0.84646 0.223242,-1.516186 0.223242,-0.674378 0.651123,-1.153418 0.409278,-0.455786 1.013892,-0.697632 0.609265,-0.241846 1.3255,-0.241846 0.744141,0 1.334803,0.246497 0.595312,0.241846 1.00924,0.692981 z m -0.08372,2.669604 q 0,-1.348755 -0.604614,-2.078943 -0.604614,-0.734838 -1.651062,-0.734838 -1.055749,0 -1.660364,0.734838 -0.599963,0.730188 -0.599963,2.078943 0,1.362708 0.613916,2.088245 0.613916,0.720886 1.646411,0.720886 1.032495,0 1.64176,-0.720886 0.613916,-0.725537 0.613916,-2.088245 z m 6.841443,-2.64635 h -3.502112 v 1.953369 h 3.009119 v 0.818555 h -3.009119 v 3.33468 H 33.69624 v -6.925158 h 4.422985 z m 5.474085,0 h -3.502112 v 1.953369 h 3.009118 v 0.818555 h -3.009118 v 3.33468 h -0.920874 v -6.925158 h 4.422986 z"
       id="text2-5"
       style="font-size:9.525px;stroke-width:0.3;stroke-linecap:round"
       aria-label="OFF" />
  </g>
</svg>
