<?xml version="1.0" encoding="UTF-8" standalone="no"?>
<!-- Created with Inkscape (http://www.inkscape.org/) -->

<svg
   xmlns:dc="http://purl.org/dc/elements/1.1/"
   xmlns:cc="http://creativecommons.org/ns#"
   xmlns:rdf="http://www.w3.org/1999/02/22-rdf-syntax-ns#"
   xmlns:svg="http://www.w3.org/2000/svg"
   xmlns="http://www.w3.org/2000/svg"
   xmlns:sodipodi="http://sodipodi.sourceforge.net/DTD/sodipodi-0.dtd"
   xmlns:inkscape="http://www.inkscape.org/namespaces/inkscape"
   width="400mm"
   height="300mm"
   viewBox="0 0 400 300"
   version="1.1"
   id="svg8"
   inkscape:version="0.92.3 (2405546, 2018-03-11)"
   sodipodi:docname="front.svg">
  <defs
     id="defs2" />
  <sodipodi:namedview
     id="base"
     pagecolor="#ffffff"
     bordercolor="#666666"
     borderopacity="1.0"
     inkscape:pageopacity="0.0"
     inkscape:pageshadow="2"
     inkscape:zoom="1.8742642"
     inkscape:cx="341.25894"
     inkscape:cy="931.61291"
     inkscape:document-units="mm"
     inkscape:current-layer="layer7"
     showgrid="false"
     inkscape:window-width="1920"
     inkscape:window-height="1027"
     inkscape:window-x="-8"
     inkscape:window-y="-8"
     inkscape:window-maximized="1"
     inkscape:snap-global="false" />
  <metadata
     id="metadata5">
    <rdf:RDF>
      <cc:Work
         rdf:about="">
        <dc:format>image/svg+xml</dc:format>
        <dc:type
           rdf:resource="http://purl.org/dc/dcmitype/StillImage" />
        <dc:title />
      </cc:Work>
    </rdf:RDF>
  </metadata>
  <g
     inkscape:groupmode="layer"
     id="layer5"
     inkscape:label="cover-front"
     style="display:none">
    <path
       style="opacity:1;fill:none;fill-opacity:1;fill-rule:nonzero;stroke:#000000;stroke-width:0.025;stroke-linecap:round;stroke-linejoin:miter;stroke-miterlimit:4;stroke-dasharray:none;stroke-opacity:1"
       d="M 88.523237,5.5266519 H 306.52324 c 0.554,0 1,0.446 1,1 V 49.526652 c 0,0.554 -0.446,1 -1,1 H 88.523237 c -0.554,0 -1,-0.446 -1,-1 V 6.5266519 c 0,-0.554 0.446,-1 1,-1 z"
       id="rect1063"
       inkscape:connector-curvature="0" />
    <path
       style="opacity:1;fill:none;fill-opacity:1;fill-rule:nonzero;stroke:#000000;stroke-width:0.025;stroke-linecap:round;stroke-linejoin:miter;stroke-miterlimit:4;stroke-dasharray:none;stroke-opacity:1"
       d="m 98.260739,41.526653 a 1.7375,1.7375 0 0 1 -1.7375,1.7375 1.7375,1.7375 0 0 1 -1.7375,-1.7375 1.7375,1.7375 0 0 1 1.7375,-1.7375 1.7375,1.7375 0 0 1 1.7375,1.7375 z"
       id="path1100"
       inkscape:connector-curvature="0" />
    <path
       style="opacity:1;fill:none;fill-opacity:1;fill-rule:nonzero;stroke:#000000;stroke-width:0.025;stroke-linecap:round;stroke-linejoin:miter;stroke-miterlimit:4;stroke-dasharray:none;stroke-opacity:1"
       d="m 300.26075,41.526653 a 1.7375,1.7375 0 0 1 -1.7375,1.7375 1.7375,1.7375 0 0 1 -1.7375,-1.7375 1.7375,1.7375 0 0 1 1.7375,-1.7375 1.7375,1.7375 0 0 1 1.7375,1.7375 z"
       id="path1100-2"
       inkscape:connector-curvature="0" />
  </g>
  <g
     style="display:none"
     inkscape:label="cover-top"
     id="g1185"
     inkscape:groupmode="layer">
    <path
       inkscape:connector-curvature="0"
       id="path1179"
       d="M 88.523237,5.5266519 H 306.52324 c 0.554,0 1,0.446 1,1 V 49.526652 c 0,0.554 -0.446,1 -1,1 H 88.523237 c -0.554,0 -1,-0.446 -1,-1 V 6.5266519 c 0,-0.554 0.446,-1 1,-1 z"
       style="opacity:1;fill:none;fill-opacity:1;fill-rule:nonzero;stroke:#000000;stroke-width:0.025;stroke-linecap:round;stroke-linejoin:miter;stroke-miterlimit:4;stroke-dasharray:none;stroke-opacity:1" />
    <path
       inkscape:connector-curvature="0"
       id="path1181"
       d="m 98.260739,28.026652 a 1.7375,1.7375 0 0 1 -1.7375,1.7375 1.7375,1.7375 0 0 1 -1.7375,-1.7375 1.7375,1.7375 0 0 1 1.7375,-1.7375 1.7375,1.7375 0 0 1 1.7375,1.7375 z"
       style="opacity:1;fill:none;fill-opacity:1;fill-rule:nonzero;stroke:#000000;stroke-width:0.025;stroke-linecap:round;stroke-linejoin:miter;stroke-miterlimit:4;stroke-dasharray:none;stroke-opacity:1" />
    <path
       inkscape:connector-curvature="0"
       id="path1183"
       d="m 300.26075,28.026652 a 1.7375,1.7375 0 0 1 -1.7375,1.7375 1.7375,1.7375 0 0 1 -1.7375,-1.7375 1.7375,1.7375 0 0 1 1.7375,-1.7375 1.7375,1.7375 0 0 1 1.7375,1.7375 z"
       style="opacity:1;fill:none;fill-opacity:1;fill-rule:nonzero;stroke:#000000;stroke-width:0.025;stroke-linecap:round;stroke-linejoin:miter;stroke-miterlimit:4;stroke-dasharray:none;stroke-opacity:1" />
  </g>
  <g
     inkscape:groupmode="layer"
     id="layer6"
     inkscape:label="cover-back"
     style="display:none">
    <path
       style="display:inline;opacity:1;fill:none;fill-opacity:1;fill-rule:nonzero;stroke:#000000;stroke-width:0.025;stroke-linecap:round;stroke-linejoin:miter;stroke-miterlimit:4;stroke-dasharray:none;stroke-opacity:1"
       d="M 7.5895197,7.3876232 H 225.58953 c 0.554,0 1,0.446 1,1 V 95.30846 c 0,0.554 -0.446,1 -1,1 H 7.5895197 c -0.554,0 -1,-0.446 -1,-1 V 8.3876232 c 0,-0.554 0.446,-1 1,-1 z"
       id="rect1063-6"
       inkscape:connector-curvature="0"
       sodipodi:nodetypes="sssssssss" />
    <path
       style="display:inline;opacity:1;fill:none;fill-opacity:1;fill-rule:nonzero;stroke:#000000;stroke-width:0.025;stroke-linecap:round;stroke-linejoin:miter;stroke-miterlimit:4;stroke-dasharray:none;stroke-opacity:1"
       d="m 17.32702,87.163064 a 1.7375,1.7375 0 0 1 -1.7375,1.7375 1.7375,1.7375 0 0 1 -1.7375,-1.7375 1.7375,1.7375 0 0 1 1.7375,-1.7375 1.7375,1.7375 0 0 1 1.7375,1.7375 z"
       id="path1100-0"
       inkscape:connector-curvature="0" />
    <path
       style="display:inline;opacity:1;fill:none;fill-opacity:1;fill-rule:nonzero;stroke:#000000;stroke-width:0.025;stroke-linecap:round;stroke-linejoin:miter;stroke-miterlimit:4;stroke-dasharray:none;stroke-opacity:1"
       d="m 17.32702,16.387623 a 1.7375,1.7375 0 0 1 -1.7375,1.7375 1.7375,1.7375 0 0 1 -1.737501,-1.7375 1.7375,1.7375 0 0 1 1.737501,-1.7375 1.7375,1.7375 0 0 1 1.7375,1.7375 z"
       id="path1100-4"
       inkscape:connector-curvature="0" />
    <path
       style="display:inline;opacity:1;fill:none;fill-opacity:1;fill-rule:nonzero;stroke:#000000;stroke-width:0.025;stroke-linecap:round;stroke-linejoin:miter;stroke-miterlimit:4;stroke-dasharray:none;stroke-opacity:1"
       d="m 219.32702,16.387623 a 1.7375,1.7375 0 0 1 -1.7375,1.7375 1.7375,1.7375 0 0 1 -1.7375,-1.7375 1.7375,1.7375 0 0 1 1.7375,-1.7375 1.7375,1.7375 0 0 1 1.7375,1.7375 z"
       id="path1100-6"
       inkscape:connector-curvature="0" />
    <path
       style="display:inline;opacity:1;fill:none;fill-opacity:1;fill-rule:nonzero;stroke:#000000;stroke-width:0.025;stroke-linecap:round;stroke-linejoin:miter;stroke-miterlimit:4;stroke-dasharray:none;stroke-opacity:1"
       d="m 219.32702,87.163064 a 1.7375,1.7375 0 0 1 -1.7375,1.7375 1.7375,1.7375 0 0 1 -1.7375,-1.7375 1.7375,1.7375 0 0 1 1.7375,-1.7375 1.7375,1.7375 0 0 1 1.7375,1.7375 z"
       id="path1100-22"
       inkscape:connector-curvature="0" />
  </g>
  <g
     inkscape:label="panel-acryl"
     inkscape:groupmode="layer"
     id="layer1"
     transform="translate(0,3)"
     style="display:none">
    <path
       style="display:inline;opacity:1;fill:none;fill-opacity:1;fill-rule:nonzero;stroke:#000000;stroke-width:0.02000001;stroke-linecap:round;stroke-linejoin:miter;stroke-miterlimit:10;stroke-dasharray:none;stroke-opacity:1"
       d="M 7.1179542,10.291132 H 224.66089 c 0.71106,0 1.2835,0.566211 1.2835,1.269531 V 144.05956 c 0,0.70332 -0.57244,1.26953 -1.2835,1.26953 H 7.1179542 c -0.7110592,0 -1.2834997,-0.56621 -1.2834997,-1.26953 V 11.560663 c 0,-0.70332 0.5724405,-1.269531 1.2834997,-1.269531 z"
       id="rect1166"
       inkscape:connector-curvature="0"
       sodipodi:nodetypes="sssssssss" />
    <path
       inkscape:connector-curvature="0"
       id="rect4625"
       d="M 36.051922,21.462874 H 195.72692 v 17.675 H 36.051922 Z"
       style="display:inline;opacity:1;fill:none;fill-opacity:1;fill-rule:nonzero;stroke:#000000;stroke-width:0.02499999;stroke-linecap:round;stroke-linejoin:miter;stroke-miterlimit:4;stroke-dasharray:none;stroke-opacity:1" />
    <path
       id="path4523-8-3-2-8"
       d="m 219.14675,21.641516 a 2.2375009,2.2374997 0 0 1 -2.23749,2.2375 2.2375009,2.2374997 0 0 1 -2.23751,-2.2375 2.2375009,2.2374997 0 0 1 2.23751,-2.237499 2.2375009,2.2374997 0 0 1 2.23749,2.237499 z"
       style="display:inline;opacity:1;fill:none;fill-opacity:1;fill-rule:nonzero;stroke:#000000;stroke-width:0.02500001;stroke-linecap:round;stroke-linejoin:miter;stroke-miterlimit:4;stroke-dasharray:none;stroke-opacity:1"
       inkscape:connector-curvature="0" />
    <path
       id="path4523-8-3-2-8-2"
       d="m 16.802099,21.641515 a 2.2375009,2.2374997 0 0 1 -2.23749,2.237501 2.2375009,2.2374997 0 0 1 -2.237511,-2.237501 2.2375009,2.2374997 0 0 1 2.237511,-2.237499 2.2375009,2.2374997 0 0 1 2.23749,2.237499 z"
       style="display:inline;opacity:1;fill:none;fill-opacity:1;fill-rule:nonzero;stroke:#000000;stroke-width:0.02500001;stroke-linecap:round;stroke-linejoin:miter;stroke-miterlimit:4;stroke-dasharray:none;stroke-opacity:1"
       inkscape:connector-curvature="0" />
    <path
       id="path4523-8-3-2-8-2-4"
       d="m 16.802099,135.31074 a 2.2375009,2.2374937 0 0 1 -2.23749,2.23751 2.2375009,2.2374937 0 0 1 -2.237511,-2.23751 2.2375009,2.2374937 0 0 1 2.237511,-2.23749 2.2375009,2.2374937 0 0 1 2.23749,2.23749 z"
       style="display:inline;opacity:1;fill:none;fill-opacity:1;fill-rule:nonzero;stroke:#000000;stroke-width:0.02500001;stroke-linecap:round;stroke-linejoin:miter;stroke-miterlimit:4;stroke-dasharray:none;stroke-opacity:1"
       inkscape:connector-curvature="0" />
    <path
       id="path4523-8-3-2-8-2-4-0"
       d="m 219.14675,135.31074 a 2.2375009,2.2374937 0 0 1 -2.23749,2.23751 2.2375009,2.2374937 0 0 1 -2.23751,-2.23751 2.2375009,2.2374937 0 0 1 2.23751,-2.23749 2.2375009,2.2374937 0 0 1 2.23749,2.23749 z"
       style="display:inline;opacity:1;fill:none;fill-opacity:1;fill-rule:nonzero;stroke:#000000;stroke-width:0.02500001;stroke-linecap:round;stroke-linejoin:miter;stroke-miterlimit:4;stroke-dasharray:none;stroke-opacity:1"
       inkscape:connector-curvature="0" />
    <g
       style="display:inline"
       id="g885"
       transform="translate(11.781173,4.7625001)">
      <path
         inkscape:connector-curvature="0"
         id="path4520"
         d="m 55.881644,86.550082 a 13.9875,13.9875 0 0 1 -13.987501,13.987488 13.9875,13.9875 0 0 1 -13.9875,-13.987488 13.9875,13.9875 0 0 1 13.9875,-13.9875 13.9875,13.9875 0 0 1 13.987501,13.9875 z"
         style="display:inline;opacity:1;fill:none;fill-opacity:1;fill-rule:nonzero;stroke:#000000;stroke-width:0.025;stroke-linecap:round;stroke-linejoin:miter;stroke-miterlimit:4;stroke-dasharray:none;stroke-opacity:1" />
      <path
         inkscape:connector-curvature="0"
         style="display:inline;opacity:1;fill:none;fill-opacity:1;fill-rule:nonzero;stroke:#000000;stroke-width:0.025;stroke-linecap:round;stroke-linejoin:miter;stroke-miterlimit:4;stroke-dasharray:none;stroke-opacity:1"
         d="m 122.85903,86.550082 a 13.9875,13.9875 0 0 1 -13.98751,13.987488 13.9875,13.9875 0 0 1 -13.987506,-13.987488 13.9875,13.9875 0 0 1 13.987506,-13.9875 13.9875,13.9875 0 0 1 13.98751,13.9875 z"
         id="path4523" />
      <path
         inkscape:connector-curvature="0"
         style="display:inline;opacity:1;fill:none;fill-opacity:1;fill-rule:nonzero;stroke:#000000;stroke-width:0.025;stroke-linecap:round;stroke-linejoin:miter;stroke-miterlimit:4;stroke-dasharray:none;stroke-opacity:1"
         d="m 89.370374,110.55393 a 13.9875,13.9875 0 0 1 -13.9875,13.9875 13.9875,13.9875 0 0 1 -13.98751,-13.9875 13.9875,13.9875 0 0 1 13.98751,-13.987508 13.9875,13.9875 0 0 1 13.9875,13.987508 z"
         id="path4523-8" />
      <path
         inkscape:connector-curvature="0"
         style="display:inline;opacity:1;fill:none;fill-opacity:1;fill-rule:nonzero;stroke:#000000;stroke-width:0.025;stroke-linecap:round;stroke-linejoin:miter;stroke-miterlimit:4;stroke-dasharray:none;stroke-opacity:1"
         d="m 89.370374,64.818832 a 13.9875,13.9875 0 0 1 -13.9875,13.9875 13.9875,13.9875 0 0 1 -13.98751,-13.9875 13.9875,13.9875 0 0 1 13.98751,-13.98751 13.9875,13.9875 0 0 1 13.9875,13.98751 z"
         id="path4523-8-3" />
    </g>
    <path
       id="path4523-8-3-2"
       d="m 175.59052,86.550082 a 3.4875013,3.487499 0 0 1 -3.48749,3.4875 3.4875013,3.487499 0 0 1 -3.48751,-3.4875 3.4875013,3.487499 0 0 1 3.48751,-3.4875 3.4875013,3.487499 0 0 1 3.48749,3.4875 z"
       style="display:inline;opacity:1;fill:none;fill-opacity:1;fill-rule:nonzero;stroke:#000000;stroke-width:0.025;stroke-linecap:round;stroke-linejoin:miter;stroke-miterlimit:4;stroke-dasharray:none;stroke-opacity:1"
       inkscape:connector-curvature="0" />
    <path
       style="display:inline;opacity:1;fill:none;fill-opacity:1;fill-rule:nonzero;stroke:#000000;stroke-width:0.02;stroke-linecap:round;stroke-linejoin:miter;stroke-miterlimit:10;stroke-dasharray:none;stroke-opacity:1"
       d="m 163.27193,85.060082 h 1.98 v 2.98 h -1.98 z"
       id="path1009"
       inkscape:connector-curvature="0" />
  </g>
  <g
     inkscape:groupmode="layer"
     id="layer7"
     inkscape:label="panel-decoration"
     style="display:inline">
    <path
       style="display:inline;opacity:1;fill:none;fill-opacity:1;fill-rule:nonzero;stroke:#000000;stroke-width:0.02499999;stroke-linecap:round;stroke-linejoin:miter;stroke-miterlimit:4;stroke-dasharray:none;stroke-opacity:1"
       d="M 58.751321,30.774636 H 218.42632 V 48.449635 H 58.751321 Z"
       id="path5924-7"
       inkscape:connector-curvature="0" />
    <path
       inkscape:connector-curvature="0"
       id="path5927-9"
       d="M 55.347667,27.238378 H 221.82997 V 51.985893 H 55.347667 Z"
       style="display:inline;opacity:1;fill:none;fill-opacity:1;fill-rule:nonzero;stroke:#000000;stroke-width:0.02499999;stroke-linecap:round;stroke-linejoin:miter;stroke-miterlimit:4;stroke-dasharray:none;stroke-opacity:1" />
    <path
       style="display:inline;opacity:1;fill:none;fill-opacity:1;fill-rule:nonzero;stroke:#000000;stroke-width:0.02499999;stroke-linecap:round;stroke-linejoin:miter;stroke-miterlimit:4;stroke-dasharray:none;stroke-opacity:1"
       d="M 56.952844,58.802421 H 216.62785 V 76.47742 H 56.952844 Z"
       id="path5924-2"
       inkscape:connector-curvature="0" />
    <path
       inkscape:connector-curvature="0"
       id="path5927-7"
       d="M 55.243189,57.101329 H 218.33751 V 78.178515 H 55.243189 Z"
       style="display:inline;opacity:1;fill:none;fill-opacity:1;fill-rule:nonzero;stroke:#000000;stroke-width:0.02499999;stroke-linecap:round;stroke-linejoin:miter;stroke-miterlimit:4;stroke-dasharray:none;stroke-opacity:1" />
  </g>
  <g
     inkscape:groupmode="layer"
     id="layer3"
     inkscape:label="panel-mdf-layer-1"
     style="display:none">
    <path
       style="display:inline;opacity:1;fill:none;fill-opacity:0.03517588;fill-rule:nonzero;stroke:#000000;stroke-width:0.02000001;stroke-linecap:round;stroke-linejoin:miter;stroke-miterlimit:10;stroke-dasharray:none;stroke-opacity:1"
       d="m 7.1039593,13.338556 c -0.70332,0 -1.26969,0.56637 -1.26969,1.26969 V 147.05976 c 0,0.70331 0.56637,1.26917 1.26969,1.26917 H 224.60735 c 0.7033,0 1.26969,-0.56586 1.26969,-1.26917 V 14.608246 c 0,-0.70332 -0.56639,-1.26969 -1.26969,-1.26969 z m 28.9492267,11.12455 h 0.100253 14.631146 9.449554 50.932281 9.44904 50.93229 9.44955 14.63115 0.0997 v 17.67489 h -0.0997 -14.63115 -9.44955 -50.93229 -9.44904 H 60.234139 50.784585 36.153439 36.053186 Z M 18.580777,46.680355 H 212.85419 c 0.70332,0 1.26917,0.56637 1.26917,1.26969 v 80.048345 c 0,0.70332 -0.56585,1.26969 -1.26917,1.26969 H 121.6706 v 11.77086 c 0,0.70331 -0.56637,1.26917 -1.26969,1.26917 H 47.684943 c -0.703318,0 -1.26969,-0.56586 -1.26969,-1.26917 V 129.26808 H 18.580777 c -0.703319,0 -1.26969,-0.56637 -1.26969,-1.26969 V 47.950045 c 0,-0.70332 0.566371,-1.26969 1.26969,-1.26969 z"
       id="path1182"
       inkscape:connector-curvature="0"
       sodipodi:nodetypes="ssssssssscccccccccccccccccccccssssscsssscssss" />
    <path
       inkscape:connector-curvature="0"
       style="display:inline;opacity:1;fill:none;fill-opacity:1;fill-rule:nonzero;stroke:#000000;stroke-width:0.02500001;stroke-linecap:round;stroke-linejoin:miter;stroke-miterlimit:4;stroke-dasharray:none;stroke-opacity:1"
       d="m 219.14675,24.641516 a 2.2375009,2.2374997 0 0 1 -2.23749,2.2375 2.2375009,2.2374997 0 0 1 -2.23751,-2.2375 2.2375009,2.2374997 0 0 1 2.23751,-2.2375 2.2375009,2.2374997 0 0 1 2.23749,2.2375 z"
       id="path1184" />
    <path
       inkscape:connector-curvature="0"
       style="display:inline;opacity:1;fill:none;fill-opacity:1;fill-rule:nonzero;stroke:#000000;stroke-width:0.02500001;stroke-linecap:round;stroke-linejoin:miter;stroke-miterlimit:4;stroke-dasharray:none;stroke-opacity:1"
       d="m 16.802099,24.641515 a 2.2375009,2.2374997 0 0 1 -2.23749,2.237501 2.2375009,2.2374997 0 0 1 -2.237511,-2.237501 2.2375009,2.2374997 0 0 1 2.237511,-2.2375 2.2375009,2.2374997 0 0 1 2.23749,2.2375 z"
       id="path1186" />
    <path
       inkscape:connector-curvature="0"
       style="display:inline;opacity:1;fill:none;fill-opacity:1;fill-rule:nonzero;stroke:#000000;stroke-width:0.02500001;stroke-linecap:round;stroke-linejoin:miter;stroke-miterlimit:4;stroke-dasharray:none;stroke-opacity:1"
       d="m 16.802099,138.31074 a 2.2375009,2.2374937 0 0 1 -2.23749,2.23751 2.2375009,2.2374937 0 0 1 -2.237511,-2.23751 2.2375009,2.2374937 0 0 1 2.237511,-2.23749 2.2375009,2.2374937 0 0 1 2.23749,2.23749 z"
       id="path1188" />
    <path
       inkscape:connector-curvature="0"
       style="display:inline;opacity:1;fill:none;fill-opacity:1;fill-rule:nonzero;stroke:#000000;stroke-width:0.02500001;stroke-linecap:round;stroke-linejoin:miter;stroke-miterlimit:4;stroke-dasharray:none;stroke-opacity:1"
       d="m 219.14675,138.31074 a 2.2375009,2.2374937 0 0 1 -2.23749,2.23751 2.2375009,2.2374937 0 0 1 -2.23751,-2.23751 2.2375009,2.2374937 0 0 1 2.23751,-2.23749 2.2375009,2.2374937 0 0 1 2.23749,2.23749 z"
       id="path1190" />
  </g>
  <g
     inkscape:groupmode="layer"
     id="layer4"
     inkscape:label="panel-mdf-layer-2"
     style="display:none">
    <path
       inkscape:connector-curvature="0"
       style="display:inline;opacity:1;fill:none;fill-opacity:1;fill-rule:nonzero;stroke:#000000;stroke-width:0.02500001;stroke-linecap:round;stroke-linejoin:miter;stroke-miterlimit:4;stroke-dasharray:none;stroke-opacity:1"
       d="m 219.14675,24.641516 a 2.2375009,2.2374997 0 0 1 -2.23749,2.2375 2.2375009,2.2374997 0 0 1 -2.23751,-2.2375 2.2375009,2.2374997 0 0 1 2.23751,-2.237499 2.2375009,2.2374997 0 0 1 2.23749,2.237499 z"
       id="path1220" />
    <path
       inkscape:connector-curvature="0"
       style="display:inline;opacity:1;fill:none;fill-opacity:1;fill-rule:nonzero;stroke:#000000;stroke-width:0.02500001;stroke-linecap:round;stroke-linejoin:miter;stroke-miterlimit:4;stroke-dasharray:none;stroke-opacity:1"
       d="m 16.802099,24.641515 a 2.2375009,2.2374997 0 0 1 -2.23749,2.237501 2.2375009,2.2374997 0 0 1 -2.237511,-2.237501 2.2375009,2.2374997 0 0 1 2.237511,-2.237499 2.2375009,2.2374997 0 0 1 2.23749,2.237499 z"
       id="path1222" />
    <path
       inkscape:connector-curvature="0"
       style="display:inline;opacity:1;fill:none;fill-opacity:1;fill-rule:nonzero;stroke:#000000;stroke-width:0.02500001;stroke-linecap:round;stroke-linejoin:miter;stroke-miterlimit:4;stroke-dasharray:none;stroke-opacity:1"
       d="m 16.802099,138.31074 a 2.2375009,2.2374937 0 0 1 -2.23749,2.23751 2.2375009,2.2374937 0 0 1 -2.237511,-2.23751 2.2375009,2.2374937 0 0 1 2.237511,-2.23749 2.2375009,2.2374937 0 0 1 2.23749,2.23749 z"
       id="path1224" />
    <path
       inkscape:connector-curvature="0"
       style="display:inline;opacity:1;fill:none;fill-opacity:1;fill-rule:nonzero;stroke:#000000;stroke-width:0.02500001;stroke-linecap:round;stroke-linejoin:miter;stroke-miterlimit:4;stroke-dasharray:none;stroke-opacity:1"
       d="m 219.14675,138.31074 a 2.2375009,2.2374937 0 0 1 -2.23749,2.23751 2.2375009,2.2374937 0 0 1 -2.23751,-2.23751 2.2375009,2.2374937 0 0 1 2.23751,-2.23749 2.2375009,2.2374937 0 0 1 2.23749,2.23749 z"
       id="path1226" />
    <path
       style="display:inline;opacity:1;fill:none;fill-opacity:0.03517588;fill-rule:nonzero;stroke:#000000;stroke-width:0.02000001;stroke-linecap:round;stroke-linejoin:miter;stroke-miterlimit:10;stroke-dasharray:none;stroke-opacity:1"
       d="m 7.103959,13.361479 c -0.7033199,0 -1.2696899,0.56637 -1.2696899,1.26969 V 147.05975 c 0,0.70332 0.56637,1.26918 1.2696899,1.26918 H 224.57227 c 0.7033,0 1.26969,-0.56586 1.26969,-1.26918 V 14.631169 c 0,-0.70332 -0.56639,-1.26969 -1.26969,-1.26969 z m 28.947584,11.101627 h 0.100253 22.301481 v 17.67489 H 36.151796 36.051543 Z m 30.419847,0 h 45.40911 v 17.67489 H 66.47139 Z m 53.42671,0 h 45.40912 v 17.67489 H 119.8981 Z m 53.42723,0 h 22.30148 0.0997 v 17.67489 h -0.0997 -22.30148 z M 18.580778,46.680355 H 212.85419 c 0.70332,0 1.26917,0.566369 1.26917,1.26969 v 80.048335 c 0,0.70332 -0.56585,1.26969 -1.26917,1.26969 h -91.18358 v 11.77086 c 0,0.70332 -0.56637,1.26917 -1.26969,1.26917 H 47.684943 c -0.703318,0 -1.26969,-0.56585 -1.26969,-1.26917 V 129.26807 H 18.580778 c -0.70332,0 -1.26969,-0.56637 -1.26969,-1.26969 V 47.950045 c 0,-0.703321 0.56637,-1.26969 1.26969,-1.26969 z"
       id="path1234"
       inkscape:connector-curvature="0"
       sodipodi:nodetypes="sssssssssccccccccccccccccccccccccssssscsssscssss" />
  </g>
  <g
     inkscape:groupmode="layer"
     id="layer2"
     inkscape:label="helper lines"
     style="display:none">
    <path
       id="path4523-8-3-2-0"
       d="m 192.09053,89.550092 a 19.987507,19.987495 0 0 1 -19.98744,19.987478 19.987507,19.987495 0 0 1 -19.98756,-19.987478 19.987507,19.987495 0 0 1 19.98756,-19.98751 19.987507,19.987495 0 0 1 19.98744,19.98751 z"
       style="display:inline;opacity:1;fill:none;fill-opacity:1;fill-rule:nonzero;stroke:#ff0036;stroke-width:0.026;stroke-linecap:round;stroke-linejoin:miter;stroke-miterlimit:4;stroke-dasharray:none;stroke-opacity:1"
       inkscape:connector-curvature="0" />
    <rect
       style="display:inline;opacity:1;fill:#000000;fill-opacity:1;fill-rule:nonzero;stroke:#0a0002;stroke-width:0.02499999;stroke-linecap:round;stroke-linejoin:miter;stroke-miterlimit:4;stroke-dasharray:none;stroke-opacity:1"
       id="rect879"
       width="17.975"
       height="17.975"
       x="5.5770979"
       y="75.325417"
       rx="0"
       ry="0" />
    <rect
       ry="0"
       rx="0"
       y="-2.3094318"
       x="207.92175"
       height="17.975"
       width="17.975"
       id="rect891"
       style="display:inline;opacity:1;fill:#000000;fill-opacity:1;fill-rule:nonzero;stroke:#0a0002;stroke-width:0.02499999;stroke-linecap:round;stroke-linejoin:miter;stroke-miterlimit:4;stroke-dasharray:none;stroke-opacity:1" />
  </g>
</svg>
